<?xml version="1.0" encoding="utf-8"?>
<?xml-stylesheet type="text/xsl" href="rss1.xsl"?>
<rss version="2.0" xmlns:atom="http://www.w3.org/2005/Atom" xmlns:content="http://purl.org/rss/1.0/modules/content/" xmlns:dc="http://purl.org/dc/elements/1.1/" xmlns:media="http://search.yahoo.com/mrss/">
<channel>
 <title>Getty</title>
 <link>http://www.gettyimg.com/</link>
 <atom:link href="http://www.gettyimg.com/" rel="self" type="application/rss+xml" />

 
                <item>
                <title><![CDATA[【Music Videos】Kid Cudi - Mr. Rager (2010) (1080P)]]></title>
                <link><![CDATA[https://sharemania.us/threads/kid-cudi-mr-rager-2010-1080p.239706/]]></link>
                <description><![CDATA[<article>
<blockquote class="messageText SelectQuoteContainer ugc baseHtml">
<img src="https://i.imgur.com/YFsyD18.jpeg" class="bbCodeImage LbImage" alt="[​IMG]" data-url="https://i.imgur.com/YFsyD18.jpeg" style=""><br>
<b>Kid Cudi - Mr. Rager (2010) (1080P) <br>
<div class="ToggleTriggerAnchor bbCodeSpoilerContainer">
<button type="button" class="button bbCodeSpoilerButton ToggleTrigger Tooltip JsOnly" data-target="> .SpoilerTarget"><span>Spoiler: <span class="SpoilerTitle">Media Info</span></span></button>
<div class="SpoilerTarget bbCodeSpoilerText">General<br>
Complete name : Kid Cudi -Mr. Rager (HD-Rip).mov<br>
Format : MPEG-4<br>
Format profile : QuickTime<br>
Codec ID : qt 2005.03 (qt )<br>
File size : 215 MiB<br>
Duration : 6 min 45 s<br>
Overall bit rate mode : Variable<br>
Overall bit rate : 4 455 kb/s<br>
Movie name : Mr. Rager (HD-Rip)<br>
Album : Man On The Moon II: The Legend Of Mr. Rager<br>
Performer : Kid Cudi<br>
Genre : Hip Hop/Rap<br>
Recorded date : 2010<br>
Encoded date : UTC 2011-08-23 14:19:06<br>
Tagged date : UTC 2011-08-23 14:22:02<br>
Writing library : Apple QuickTime 7.6.6<br>
Comment : / ℗ 2010 Universal Motown Records, a division of UMG Recordings, Inc.<br>
com.apple.quicktime.player.mov : CAA172F0-0232-4B37-B6C2-D9C69BE14DAE<br>
com.apple.quicktime.player.mov : (Binary)<br>
Media/UUID : 7.6.6 (1783) 0x7668000 (Mac OS X, 10.6.8, 10K549)<br>
<br>
Video<br>
ID : 1<br>
Format : AVC<br>
Format/Info : Advanced Video Codec<br>
Format profile : Main@L3.2<br>
Format settings, CABAC : No<br>
Format settings, RefFrames : 2 frames<br>
Codec ID : avc1<br>
Codec ID/Info : Advanced Video Coding<br>
Duration : 6 min 45 s<br>
Bit rate mode : Variable<br>
Bit rate : 4 219 kb/s<br>
Maximum bit rate : 5 595 kb/s<br>
Width : 1 280 pixels<br>
Clean aperture width : 1 248 pixels<br>
Height : 720 pixels<br>
Clean aperture height : 702 pixels<br>
Display aspect ratio : 16:9<br>
Frame rate mode : Constant<br>
Frame rate : 25.000 FPS<br>
Color space : YUV<br>
Chroma subsampling : 4:2:0<br>
Bit depth : 8 bits<br>
Scan type : Progressive<br>
Bits/(Pixel*Frame) : 0.183<br>
Stream size : 204 MiB (95%)<br>
Language : English<br>
Encoded date : UTC 2011-08-23 14:19:06<br>
Tagged date : UTC 2011-08-23 14:22:02<br>
Color range : Limited<br>
Color primaries : BT.709<br>
Transfer characteristics : BT.709<br>
Matrix coefficients : BT.709<br>
<br>
Audio<br>
ID : 2<br>
Format : AAC<br>
Format/Info : Advanced Audio Codec<br>
Format profile : LC<br>
Codec ID : 40<br>
Duration : 6 min 44 s<br>
Bit rate mode : Constant<br>
Bit rate : 224 kb/s<br>
Channel(s) : 2 channels<br>
Channel positions : Front: L R<br>
Sampling rate : 48.0 kHz<br>
Frame rate : 46.875 FPS (1024 SPF)<br>
Compression mode : Lossy<br>
Stream size : 10.8 MiB (5%)<br>
Language : English<br>
Encoded date : UTC 2011-08-23 14:19:06<br>
Tagged date : UTC 2011-08-23 14:22:02<br>
<br>
Other<br>
ID : 3<br>
Type : Time code<br>
Format : QuickTime TC<br>
Duration : 6 min 45 s<br>
Time code of first frame : 00:00:00:00<br>
Time code, striped : Yes<br>
Language : English<br>
Encoded date : UTC 2011-08-23 14:19:06<br>
Tagged date : UTC 2011-08-23 14:19:09<br>
</div>
</div><b><br>
<br>
[/URL]
<div class="bbCodeBlock bbCodeVfcHH HiddenContent">
<div class="attribution type">Hidden Content:</div>
<blockquote>You must reply before you can see the hidden data contained here.</blockquote>
</div></b></b>
<div class="messageTextEndMarker">&nbsp;</div>
</blockquote>
</article>]]></description>
                <author><![CDATA[gamerfronts]]></author>
                </item>

                
                <item>
                <title><![CDATA[【Bugs!】LE SSERAFIM - Smart (Bugs! 4K)]]></title>
                <link><![CDATA[https://sharemania.us/threads/le-sserafim-smart-bugs-4k.239707/]]></link>
                <description><![CDATA[<article>
<blockquote class="messageText SelectQuoteContainer ugc baseHtml">
<img src="https://i.imgur.com/cNEbaEU.jpg" class="bbCodeImage LbImage" alt="[​IMG]" data-url="https://i.imgur.com/cNEbaEU.jpg" style=""> <br>
<div class="bbCodeBlock bbCodeVfcHH HiddenContent">
<div class="attribution type">Hidden Content:</div>
<blockquote>You must reply before you can see the hidden data contained here.</blockquote>
</div>
<div class="messageTextEndMarker">&nbsp;</div>
</blockquote>
</article>]]></description>
                <author><![CDATA[Once14]]></author>
                </item>

                </channel></rss>